<svg width="187" height="50" viewBox="0 0 187 50" fill="none" xmlns="http://www.w3.org/2000/svg">
<g clip-path="url(#clip0_10624_33368)">
<path d="M119.226 0.590605H107.21C107.252 1.93518 107.285 3.42333 107.307 5.04952C107.329 6.67571 107.348 8.37921 107.373 10.16C107.395 11.9408 107.406 13.6968 107.406 15.4334V18.6223H102.996C103.002 17.6118 103.01 16.5737 103.024 15.4969C103.046 13.763 103.057 12.0043 103.057 10.2235C103.057 8.44271 103.068 6.73093 103.09 5.07989C103.112 3.43161 103.123 1.93518 103.123 0.587844H91.3032C91.3445 4.01693 91.3776 7.65032 91.3996 11.4908C91.4217 15.3312 91.4327 19.8343 91.4327 24.9973C91.4327 28.4705 91.4217 31.6042 91.3996 34.4038C91.3776 37.2034 91.3556 39.818 91.3363 42.2476C91.3142 44.6773 91.3032 47.0655 91.3032 49.4067H103.123C103.123 48.018 103.112 46.5105 103.09 44.8816C103.068 43.2554 103.057 41.5408 103.057 39.7379C103.057 37.935 103.046 36.1901 103.024 34.4977C103.01 33.4816 103.002 32.4905 102.996 31.5131C103.178 31.5076 103.36 31.5021 103.541 31.5021H106.918C107.087 31.5021 107.244 31.5076 107.406 31.5103V34.528C107.406 36.2426 107.395 37.9903 107.373 39.7683C107.351 41.5491 107.329 43.2609 107.307 44.9119C107.285 46.563 107.252 48.0594 107.21 49.404H119.226C119.226 47.0599 119.204 44.6745 119.159 42.2449C119.115 39.8152 119.082 37.2006 119.063 34.401C119.041 31.6014 119.03 28.4678 119.03 24.9945C119.03 19.8316 119.052 15.3285 119.096 11.488C119.137 7.64756 119.182 4.01417 119.226 0.585083V0.590605Z" fill="#EB4747"/>
<path d="M148.448 35.3839C148.145 32.6285 147.831 29.8179 147.506 26.9548C147.181 24.0917 146.878 21.27 146.597 18.4925C146.316 15.715 146.046 13.1335 145.785 10.7453C145.526 8.35986 145.308 6.29744 145.135 4.56081C144.961 2.82694 144.832 1.50169 144.746 0.590576H125.134C125.09 1.46027 124.983 2.77172 124.809 4.52767C124.635 6.28639 124.44 8.35709 124.225 10.7453C124.007 13.1335 123.76 15.704 123.479 18.4594C123.198 21.2148 122.906 24.0254 122.603 26.8885C122.3 29.7516 121.997 32.5733 121.694 35.3508C121.391 38.1283 121.099 40.7208 120.818 43.1284C120.537 45.5359 120.286 47.6314 120.071 49.4095H131.761C131.761 48.2803 131.803 46.7728 131.891 44.8843C131.954 43.4735 132.031 41.9218 132.122 40.2294H137.086C137.097 40.5137 137.111 40.7981 137.119 41.0742C137.185 42.9406 137.237 44.5999 137.281 46.0549C137.323 47.51 137.303 48.6254 137.215 49.4067H150.139C149.922 47.6287 149.663 45.5331 149.36 43.1256C149.057 40.718 148.754 38.1366 148.451 35.3812L148.448 35.3839ZM134.615 29.6881C134.061 29.6881 133.425 29.6771 132.703 29.6577C132.836 27.3606 132.973 25.0525 133.119 22.725C133.293 19.9917 133.508 17.4102 133.769 14.9778C133.899 13.937 134.028 12.7636 134.161 11.4632C134.29 10.16 134.397 8.89272 134.486 7.65582C134.497 7.51225 134.505 7.37144 134.516 7.23339H134.78C134.791 7.37972 134.802 7.53157 134.811 7.68895C134.896 8.94794 134.995 10.229 135.103 11.5294C135.21 12.8326 135.351 13.959 135.524 14.9143C135.698 16.9961 135.86 19.1689 136.012 21.4246C136.163 23.6803 136.293 25.9608 136.4 28.2607C136.422 28.7411 136.447 29.216 136.472 29.6936H134.615V29.6881Z" fill="#EB4747"/>
<path d="M174.944 34.0477C174.944 35.5248 174.922 36.8804 174.877 38.1173C174.833 39.3542 174.8 40.5911 174.781 41.828C174.759 43.0649 174.748 44.2797 174.748 45.4724C174.748 46.6652 174.682 47.9794 174.552 49.4095H186.047C185.959 45.8949 185.918 42.2283 185.918 38.41V24.9366C185.918 19.5997 185.929 15 185.951 11.1374C185.973 7.27486 185.984 3.76018 185.984 0.593384H172.217C172.087 1.59284 171.958 2.67513 171.828 3.84853C171.699 5.01917 171.536 6.21465 171.341 7.42947C171.145 8.64428 170.961 9.92536 170.79 11.2699C170.616 12.6145 170.443 13.9398 170.269 15.2402C170.181 16.3252 170.074 17.6173 169.944 19.1138C169.815 20.6102 169.685 22.1094 169.556 23.6058C169.52 24.0144 169.481 24.4148 169.44 24.8096H169.085C169.06 24.4396 169.032 24.0614 169.005 23.6693C168.897 22.1287 168.776 20.6102 168.647 19.1138C168.517 17.6173 168.388 16.3473 168.258 15.3064C168.041 13.9177 167.856 12.5731 167.707 11.2699C167.556 9.96677 167.393 8.6995 167.22 7.4626C167.046 6.2257 166.895 5.03297 166.765 3.88166C166.636 2.73311 166.507 1.63702 166.374 0.593384H151.244C151.285 3.76294 151.318 7.27762 151.34 11.1374C151.362 15 151.373 19.5997 151.373 24.9366C151.373 30.2735 151.362 34.5916 151.34 38.41C151.318 42.2283 151.263 45.8949 151.178 49.4095H161.309C161.309 48.0208 161.287 46.7204 161.243 45.5028C161.199 44.288 161.146 43.0842 161.08 41.8915C161.014 40.6988 160.973 39.4729 160.951 38.2139C160.929 36.9549 160.918 35.6104 160.918 34.1774C160.918 32.7445 160.907 31.1818 160.885 29.6219C160.863 28.0592 160.807 26.4772 160.722 24.8703C160.675 23.9868 160.626 23.0923 160.579 22.195L160.929 22.1508C161.044 22.9266 161.163 23.6969 161.273 24.4783C161.51 26.1707 161.738 27.7776 161.956 29.2961C162.171 30.8146 162.347 32.0957 162.477 33.1366L165.595 49.4095H170.465L173.387 33.2028C173.561 32.2061 173.754 30.9886 173.971 29.5584C174.186 28.1255 174.415 26.5766 174.654 24.9034C174.781 24.0144 174.908 23.1226 175.034 22.2281L175.348 22.275C175.244 24.1994 175.15 26.1017 175.079 27.9626C174.99 30.1548 174.949 32.184 174.949 34.0477H174.944Z" fill="#EB4747"/>
<path d="M77.3824 26.8057C77.4099 26.7809 75.9969 25.2541 77.3879 23.6196C82.3129 18.683 77.5422 8.77126 69.5734 10.4941C65.8768 6.09591 60.7617 3.28528 55.0682 2.55363C40.26 -0.279097 22.488 0.126761 13.0813 12.0209C7.84227 7.91813 0.0773375 11.6426 0.0773375 18.3821C0.0773375 23.396 4.22011 24.169 2.01651 26.7864C-4.14256 33.6252 5.04921 44.2769 12.8747 38.5535C21.8517 49.9175 40.5465 51.0689 55.0764 47.8551C60.7617 47.1235 65.8713 44.3184 69.5651 39.9257C77.6083 41.6651 82.2551 31.6705 77.3824 26.8057ZM63.3069 17.1397H52.3219C47.9395 17.1397 44.232 20.577 44.1025 24.9669C43.9675 29.528 47.631 33.2801 52.1512 33.2801H62.0591C63.1031 33.2801 63.6292 34.5446 62.8882 35.2846C62.7615 35.4116 62.6128 35.5579 62.4365 35.7318C53.0794 44.9534 37.4504 38.0924 37.4504 25.2071C37.4504 12.3218 53.107 5.48574 62.4475 14.6907C63.979 16.2037 63.5273 15.7178 63.3069 17.1397ZM3.84825 28.4623C5.62766 26.4772 5.34394 23.7356 3.89507 22.0072C-0.490089 16.8636 6.45401 9.80385 11.6462 14.0474C7.13161 21.2645 7.71557 30.3618 11.4617 36.5187C6.15101 40.5248 -0.366137 33.2774 3.851 28.4623H3.84825ZM14.263 14.5803C22.0582 3.31012 37.9793 3.31841 42.9043 3.61107C43.2707 3.63315 43.356 4.13288 43.02 4.27921C31.0737 9.44217 27.0136 22.471 30.7239 33.0289C33.0157 39.553 25.7328 45.3289 19.9896 41.4939C10.2359 34.9809 7.84503 23.8488 14.263 14.583V14.5803ZM54.7018 45.3979C42.4443 46.9247 31.8422 37.3249 31.8422 25.2071C31.8422 6.74197 54.6936 -2.1731 67.1219 11.4577C63.9294 13.3765 65.7391 14.3125 63.6622 12.4267C52.6966 2.46528 34.9686 10.3146 34.9686 25.2099C34.9686 40.1052 52.691 47.9545 63.6595 37.993C63.9625 37.7169 64.2049 37.4933 64.3867 37.3221C64.5795 37.1399 64.8852 37.151 65.0615 37.3497C65.2929 37.612 65.7061 38.0013 66.425 38.5038C66.6839 38.6833 66.7225 39.0505 66.5104 39.2824C65.202 40.7153 61.2796 44.5724 54.7018 45.4006V45.3979ZM71.2619 37.6258C68.9977 37.6258 66.9897 36.2619 66.122 34.2023C65.9402 33.766 65.8328 33.3768 65.7722 32.9957C65.5656 31.7368 64.5106 30.7925 63.238 30.7925H52.1484C44.7774 30.7925 44.7774 19.6218 52.1484 19.6218H63.238C64.5106 19.6218 65.5656 18.6803 65.7722 17.4185C65.8355 17.0348 65.9429 16.6455 66.1247 16.2092C66.7335 14.768 67.9179 13.6167 69.5155 13.0756C74.8317 11.2948 79.137 17.7305 75.5011 22.0072C74.0274 23.7383 73.7767 26.3805 75.6278 28.5617C78.5035 32.1978 75.928 37.6258 71.2619 37.6258Z" fill="#EB4747"/>
</g>
<defs>
<clipPath id="clip0_10624_33368">
<rect width="186.05" height="48.8189" fill="white" transform="translate(0 0.590576)"/>
</clipPath>
</defs>
</svg>
